<svg width="22" height="21" viewBox="0 0 22 21" fill="none" xmlns="http://www.w3.org/2000/svg">
<path d="M21.001 19.2488H20.001V7.97875C20.001 7.35875 19.721 6.77875 19.231 6.39875L12.231 0.95875C11.511 0.38875 10.491 0.38875 9.77098 0.95875L2.77098 6.39875C2.28098 6.77875 2.00098 7.35875 2.00098 7.96875L1.95098 19.2488H1.00098C0.802064 19.2488 0.611299 19.3278 0.470647 19.4684C0.329994 19.6091 0.250977 19.7998 0.250977 19.9988C0.250977 20.1977 0.329994 20.3884 0.470647 20.5291C0.611299 20.6697 0.802064 20.7488 1.00098 20.7488H21.001C21.1999 20.7488 21.3907 20.6697 21.5313 20.5291C21.672 20.3884 21.751 20.1977 21.751 19.9988C21.751 19.7998 21.672 19.6091 21.5313 19.4684C21.3907 19.3278 21.1999 19.2488 21.001 19.2488ZM9.50098 4.74875H12.501C12.911 4.74875 13.251 5.08875 13.251 5.49875C13.251 5.90875 12.911 6.24875 12.501 6.24875H9.50098C9.09098 6.24875 8.75098 5.90875 8.75098 5.49875C8.75098 5.08875 9.09098 4.74875 9.50098 4.74875ZM16.001 19.2488H6.00098V10.4987C6.00098 9.66875 6.67098 8.99875 7.50098 8.99875H14.501C15.331 8.99875 16.001 9.66875 16.001 10.4987V19.2488Z" fill="white"/>
</svg>
