<svg width="20" height="20" viewBox="0 0 20 20" fill="none" xmlns="http://www.w3.org/2000/svg">
<path d="M15.621 8.752C15.4168 8.752 15.2209 8.67088 15.0765 8.52647C14.9321 8.38207 14.851 8.18622 14.851 7.982C14.851 7.612 14.481 6.842 13.861 6.172C13.251 5.522 12.581 5.142 12.021 5.142C11.8168 5.142 11.6209 5.06088 11.4765 4.91647C11.3321 4.77207 11.251 4.57622 11.251 4.372C11.251 3.952 11.601 3.602 12.021 3.602C13.021 3.602 14.071 4.142 14.991 5.112C15.851 6.022 16.401 7.152 16.401 7.972C16.401 8.402 16.051 8.752 15.621 8.752ZM19.231 8.75C19.0268 8.75 18.8309 8.66888 18.6865 8.52447C18.5421 8.38007 18.461 8.18422 18.461 7.98C18.461 4.43 15.571 1.55 12.031 1.55C11.8268 1.55 11.6309 1.46888 11.4865 1.32447C11.3421 1.18007 11.261 0.984217 11.261 0.78C11.261 0.36 11.601 0 12.021 0C16.421 0 20.001 3.58 20.001 7.98C20.001 8.4 19.651 8.75 19.231 8.75ZM9.05098 12.95L7.20098 14.8C6.81098 15.19 6.19098 15.19 5.79098 14.81C5.68098 14.7 5.57098 14.6 5.46098 14.49C4.44974 13.472 3.51708 12.3789 2.67098 11.22C1.85098 10.08 1.19098 8.94 0.710977 7.81C0.240977 6.67 0.000976562 5.58 0.000976562 4.54C0.000976562 3.86 0.120976 3.21 0.360976 2.61C0.600976 2 0.980977 1.44 1.51098 0.94C2.15098 0.31 2.85098 0 3.59098 0C3.87098 0 4.15098 0.0600001 4.40098 0.18C4.66098 0.3 4.89098 0.48 5.07098 0.74L7.39098 4.01C7.57098 4.26 7.70098 4.49 7.79098 4.71C7.88098 4.92 7.93098 5.13 7.93098 5.32C7.93098 5.56 7.86098 5.8 7.72098 6.03C7.59098 6.26 7.40098 6.5 7.16098 6.74L6.40098 7.53C6.29098 7.64 6.24098 7.77 6.24098 7.93C6.24098 8.01 6.25098 8.08 6.27098 8.16C6.30098 8.24 6.33098 8.3 6.35098 8.36C6.53098 8.69 6.84098 9.12 7.28098 9.64C7.73098 10.16 8.21098 10.69 8.73098 11.22C8.83098 11.32 8.94098 11.42 9.04098 11.52C9.44098 11.91 9.45098 12.55 9.05098 12.95ZM19.971 16.33C19.9697 16.7074 19.8843 17.0798 19.721 17.42C19.551 17.78 19.331 18.12 19.041 18.44C18.551 18.98 18.011 19.37 17.401 19.62C17.391 19.62 17.381 19.63 17.371 19.63C16.781 19.87 16.141 20 15.451 20C14.431 20 13.341 19.76 12.191 19.27C11.041 18.78 9.89098 18.12 8.75098 17.29C8.36098 17 7.97098 16.71 7.60098 16.4L10.871 13.13C11.151 13.34 11.401 13.5 11.611 13.61C11.661 13.63 11.721 13.66 11.791 13.69C11.871 13.72 11.951 13.73 12.041 13.73C12.211 13.73 12.341 13.67 12.451 13.56L13.211 12.81C13.461 12.56 13.701 12.37 13.931 12.25C14.161 12.11 14.391 12.04 14.641 12.04C14.831 12.04 15.031 12.08 15.251 12.17C15.471 12.26 15.701 12.39 15.951 12.56L19.261 14.91C19.521 15.09 19.701 15.3 19.811 15.55C19.911 15.8 19.971 16.05 19.971 16.33Z" fill="white"/>
</svg>
