<svg width="40" height="40" viewBox="0 0 40 40" fill="none" xmlns="http://www.w3.org/2000/svg">
<path d="M27.4002 5.16992C24.3835 5.16992 21.6835 6.63659 20.0002 8.88659C19.1404 7.73461 18.0239 6.79891 16.7394 6.15375C15.4549 5.50858 14.0376 5.17173 12.6002 5.16992C7.4835 5.16992 3.3335 9.33659 3.3335 14.4866C3.3335 16.4699 3.65016 18.3033 4.20016 20.0033C6.8335 28.3366 14.9502 33.3199 18.9668 34.6866C19.5335 34.8866 20.4668 34.8866 21.0335 34.6866C25.0502 33.3199 33.1668 28.3366 35.8002 20.0033C36.3502 18.3033 36.6668 16.4699 36.6668 14.4866C36.6668 9.33659 32.5168 5.16992 27.4002 5.16992Z" fill="url(#paint0_linear_1098_9359)"/>
<path d="M23.4282 20V22.5714C23.4282 23.5186 22.6611 24.2857 21.7139 24.2857H18.2854C17.3382 24.2857 16.5711 23.5186 16.5711 22.5714V20C16.5711 19.7643 16.7639 19.5714 16.9997 19.5714H17.8439C18.0797 19.5714 18.2725 19.7643 18.2725 20V21.3457C18.273 21.5733 18.3633 21.7915 18.5238 21.9528C18.6843 22.1142 18.9021 22.2056 19.1297 22.2071C19.2925 22.2071 19.4554 22.16 19.5968 22.0657L20.0039 21.8L20.3811 22.0529C20.6425 22.2286 20.9768 22.25 21.2554 22.1C21.5382 21.95 21.7139 21.6629 21.7139 21.3414V20C21.7139 19.7643 21.9068 19.5714 22.1425 19.5714H22.9997C23.2354 19.5714 23.4282 19.7643 23.4282 20ZM24.0711 17.8571V18.2857C24.0711 18.7571 23.8439 19.1429 23.2139 19.1429H16.7854C16.1297 19.1429 15.9282 18.7571 15.9282 18.2857V17.8571C15.9282 17.3857 16.1297 17 16.7854 17H23.2139C23.8439 17 24.0711 17.3857 24.0711 17.8571Z" fill="white"/>
<path d="M19.845 17.0004H17.4793C17.4088 16.924 17.3708 16.8232 17.3732 16.7192C17.3756 16.6153 17.4182 16.5164 17.4921 16.4433L18.1007 15.8347C18.1777 15.7585 18.2817 15.7158 18.39 15.7158C18.4983 15.7158 18.6022 15.7585 18.6793 15.8347L19.845 17.0004ZM22.5163 17.0004H20.1506L21.3163 15.8347C21.3933 15.7585 21.4972 15.7158 21.6056 15.7158C21.7139 15.7158 21.8178 15.7585 21.8948 15.8347L22.5034 16.4433C22.6577 16.5976 22.662 16.8418 22.5163 17.0004ZM20.8444 19.5714C21.0801 19.5714 21.273 19.7643 21.273 20V21.3414C21.273 21.6843 20.8916 21.89 20.6087 21.6971L20.223 21.44C20.153 21.3939 20.0711 21.3693 19.9873 21.3693C19.9035 21.3693 19.8215 21.3939 19.7516 21.44L19.3487 21.7057C19.0658 21.8943 18.6887 21.6886 18.6887 21.35V20C18.6887 19.7643 18.8816 19.5714 19.1173 19.5714H20.8444Z" fill="white"/>
<defs>
<linearGradient id="paint0_linear_1098_9359" x1="5.3335" y1="5.33333" x2="22.3335" y2="27.5" gradientUnits="userSpaceOnUse">
<stop stop-color="#175CE1" stop-opacity="0.71"/>
<stop offset="1" stop-color="#A75FD2" stop-opacity="0.94"/>
</linearGradient>
</defs>
</svg>
