<svg width="99" height="94" viewBox="0 0 99 94" fill="none" xmlns="http://www.w3.org/2000/svg">
<path d="M89.8737 3.49999C90.82 2.84772 91.0138 1.6312 90.3065 0.782795C89.5992 -0.0656061 88.2586 -0.224608 87.3123 0.427655L89.8737 3.49999ZM75.1908 83.4453L75.2913 85.3794L75.1908 83.4453ZM0.487821 93.343L23.7889 85.632L5.03935 71.2977L0.487821 93.343ZM87.3123 0.427655C63.2326 17.0251 47.5056 38.4428 43.9972 55.6668C42.2394 64.2962 43.5064 72.1624 48.7779 77.7112C54.0665 83.278 62.9501 86.0571 75.2913 85.3794L75.0903 81.5112C63.5102 82.147 56.1583 79.4988 52.0369 75.1606C47.8985 70.8045 46.5811 64.288 48.2042 56.3198C51.4574 40.3488 66.3528 19.7123 89.8737 3.49999L87.3123 0.427655ZM75.2913 85.3794C87.4389 84.7124 94.9158 78.9117 97.5774 71.5997C100.191 64.4195 98.034 56.077 91.6943 50.4846C85.2748 44.8217 74.8195 42.1622 61.2105 45.8016C47.6707 49.4225 30.939 59.2723 11.4376 78.6706L14.5831 81.2586C33.8025 62.1408 49.8871 52.8556 62.3705 49.5172C74.7847 46.1974 83.5594 48.7545 88.6881 53.2787C93.8967 57.8734 95.6063 64.6887 93.5159 70.4314C91.4735 76.0424 85.6761 80.9299 75.0903 81.5112L75.2913 85.3794Z" fill="#175CE1"/>
</svg>
